<svg width="80" height="40" viewBox="0 0 80 40" fill="none" xmlns="http://www.w3.org/2000/svg">
<path d="M28.48 13H30.24L37.64 23.94V13H39.5V27H37.76L30.34 16.1V27H28.48V13ZM45.8844 27.16C44.711 27.16 43.7644 26.8067 43.0444 26.1C42.3377 25.3933 41.9844 24.4667 41.9844 23.32V20.72C41.9844 19.56 42.3444 18.6267 43.0644 17.92C43.7844 17.2133 44.7377 16.86 45.9244 16.86H47.6044C48.791 16.86 49.7444 17.2133 50.4644 17.92C51.1844 18.6267 51.5444 19.56 51.5444 20.72V23.32C51.5444 24.4667 51.1777 25.3933 50.4444 26.1C49.7244 26.8067 48.771 27.16 47.5844 27.16H45.8844ZM47.5644 25.52C48.2044 25.52 48.7177 25.3133 49.1044 24.9C49.491 24.4867 49.6844 23.9333 49.6844 23.24V20.78C49.6844 20.0867 49.491 19.5333 49.1044 19.12C48.731 18.7067 48.231 18.5 47.6044 18.5H45.9244C45.2977 18.5 44.791 18.7067 44.4044 19.12C44.031 19.5333 43.8444 20.0867 43.8444 20.78V23.24C43.8444 23.9333 44.031 24.4867 44.4044 24.9C44.7777 25.3133 45.2777 25.52 45.9044 25.52H47.5644Z" fill="white"/>
<rect x="0.25" y="0.25" width="79.5" height="39.5" rx="19.75" stroke="white" stroke-width="0.5"/>
</svg>
