<svg width="90" height="29" viewBox="0 0 90 29" fill="none" xmlns="http://www.w3.org/2000/svg">
<rect width="90" height="29" rx="14.5" fill="#101010"/>
<path d="M45.3504 19.0768C44.6763 19.0768 44.0533 18.9659 43.4816 18.744C42.9099 18.5136 42.4149 18.1936 41.9968 17.784C41.5787 17.3744 41.2501 16.8923 41.0112 16.3376C40.7808 15.7829 40.6656 15.1771 40.6656 14.52C40.6656 13.8629 40.7808 13.2571 41.0112 12.7024C41.2501 12.1477 41.5787 11.6656 41.9968 11.256C42.4235 10.8464 42.9227 10.5307 43.4944 10.3088C44.0661 10.0784 44.6891 9.9632 45.3632 9.9632C46.0117 9.9632 46.6219 10.0741 47.1936 10.296C47.7653 10.5093 48.2475 10.8336 48.64 11.2688L48.0384 11.8704C47.6715 11.4949 47.2661 11.2261 46.8224 11.064C46.3787 10.8933 45.9008 10.808 45.3888 10.808C44.8512 10.808 44.352 10.9019 43.8912 11.0896C43.4304 11.2688 43.0293 11.5291 42.688 11.8704C42.3467 12.2032 42.0779 12.5957 41.8816 13.048C41.6939 13.4917 41.6 13.9824 41.6 14.52C41.6 15.0576 41.6939 15.5525 41.8816 16.0048C42.0779 16.4485 42.3467 16.8411 42.688 17.1824C43.0293 17.5152 43.4304 17.7755 43.8912 17.9632C44.352 18.1424 44.8512 18.232 45.3888 18.232C45.9008 18.232 46.3787 18.1467 46.8224 17.976C47.2661 17.8053 47.6715 17.5323 48.0384 17.1568L48.64 17.7584C48.2475 18.1936 47.7653 18.5221 47.1936 18.744C46.6219 18.9659 46.0075 19.0768 45.3504 19.0768ZM52.9064 19.064C52.2579 19.064 51.6733 18.9189 51.1528 18.6288C50.6408 18.3301 50.2355 17.9248 49.9368 17.4128C49.6381 16.8923 49.4888 16.2992 49.4888 15.6336C49.4888 14.9595 49.6381 14.3664 49.9368 13.8544C50.2355 13.3424 50.6408 12.9413 51.1528 12.6512C51.6648 12.3611 52.2493 12.216 52.9064 12.216C53.572 12.216 54.1608 12.3611 54.6728 12.6512C55.1933 12.9413 55.5987 13.3424 55.8888 13.8544C56.1875 14.3664 56.3368 14.9595 56.3368 15.6336C56.3368 16.2992 56.1875 16.8923 55.8888 17.4128C55.5987 17.9248 55.1933 18.3301 54.6728 18.6288C54.1523 18.9189 53.5635 19.064 52.9064 19.064ZM52.9064 18.2576C53.3928 18.2576 53.8237 18.1509 54.1992 17.9376C54.5747 17.7157 54.8691 17.4085 55.0824 17.016C55.3043 16.6149 55.4152 16.1541 55.4152 15.6336C55.4152 15.1045 55.3043 14.6437 55.0824 14.2512C54.8691 13.8587 54.5747 13.5557 54.1992 13.3424C53.8237 13.1205 53.3971 13.0096 52.9192 13.0096C52.4413 13.0096 52.0147 13.1205 51.6392 13.3424C51.2637 13.5557 50.9651 13.8587 50.7432 14.2512C50.5213 14.6437 50.4104 15.1045 50.4104 15.6336C50.4104 16.1541 50.5213 16.6149 50.7432 17.016C50.9651 17.4085 51.2637 17.7157 51.6392 17.9376C52.0147 18.1509 52.4371 18.2576 52.9064 18.2576ZM61.661 19.064C61.0807 19.064 60.5559 18.9317 60.0866 18.6672C59.6173 18.3941 59.2418 18.0059 58.9602 17.5024C58.6871 16.9904 58.5506 16.3675 58.5506 15.6336C58.5506 14.8997 58.6871 14.2811 58.9602 13.7776C59.2333 13.2656 59.6045 12.8773 60.0738 12.6128C60.5431 12.3483 61.0722 12.216 61.661 12.216C62.301 12.216 62.8727 12.3611 63.3762 12.6512C63.8882 12.9328 64.2893 13.3339 64.5794 13.8544C64.8695 14.3664 65.0146 14.9595 65.0146 15.6336C65.0146 16.3163 64.8695 16.9136 64.5794 17.4256C64.2893 17.9376 63.8882 18.3387 63.3762 18.6288C62.8727 18.9189 62.301 19.064 61.661 19.064ZM58.1922 21.4832V12.28H59.0626V14.3024L58.973 15.6464L59.101 17.0032V21.4832H58.1922ZM61.597 18.2576C62.0749 18.2576 62.5015 18.1509 62.877 17.9376C63.2525 17.7157 63.5511 17.4085 63.773 17.016C63.9949 16.6149 64.1058 16.1541 64.1058 15.6336C64.1058 15.1131 63.9949 14.6565 63.773 14.264C63.5511 13.8715 63.2525 13.5643 62.877 13.3424C62.5015 13.1205 62.0749 13.0096 61.597 13.0096C61.1191 13.0096 60.6882 13.1205 60.3042 13.3424C59.9287 13.5643 59.6301 13.8715 59.4082 14.264C59.1949 14.6565 59.0882 15.1131 59.0882 15.6336C59.0882 16.1541 59.1949 16.6149 59.4082 17.016C59.6301 17.4085 59.9287 17.7157 60.3042 17.9376C60.6882 18.1509 61.1191 18.2576 61.597 18.2576ZM66.7309 21.5472C66.4152 21.5472 66.1122 21.496 65.8221 21.3936C65.5405 21.2912 65.2973 21.1376 65.0925 20.9328L65.5149 20.2544C65.6856 20.4165 65.869 20.5403 66.0653 20.6256C66.2701 20.7195 66.4962 20.7664 66.7437 20.7664C67.0424 20.7664 67.2984 20.6811 67.5117 20.5104C67.7336 20.3483 67.9426 20.0581 68.1389 19.64L68.5741 18.6544L68.6765 18.5136L71.4413 12.28H72.3373L68.9709 19.8064C68.7832 20.2416 68.5741 20.5872 68.3437 20.8432C68.1218 21.0992 67.8786 21.2784 67.6141 21.3808C67.3496 21.4917 67.0552 21.5472 66.7309 21.5472ZM68.5229 19.192L65.4253 12.28H66.3725L69.1117 18.4496L68.5229 19.192Z" fill="white"/>
<path d="M20.6364 8.18182H17.16C17.0716 8.18182 17 8.25345 17 8.34182V21.84C17 21.9284 17.0716 22 17.16 22H25.5673C25.6556 22 25.7273 21.9284 25.7273 21.84V20.5455V20.1818M20.6364 8.18182V6.16C20.6364 6.07163 20.708 6 20.7964 6H27.1155C27.158 6 27.1987 6.01686 27.2287 6.04686L29.3168 8.13496C29.3468 8.16496 29.3636 8.20566 29.3636 8.24809V19.6582C29.3636 19.7465 29.292 19.8182 29.2036 19.8182H25.8873C25.7989 19.8182 25.7273 19.8898 25.7273 19.9782V20.1818M20.6364 8.18182H25.5673C25.6556 8.18182 25.7273 8.25345 25.7273 8.34182V20.1818" stroke="white" stroke-width="0.727273"/>
</svg>
