<svg width="300" height="75" viewBox="0 0 300 75" fill="none" xmlns="http://www.w3.org/2000/svg">
<path d="M2.97716 40.8438V19.8101H5.92187V22.7128C6.67908 21.6471 7.64663 20.7987 8.82451 20.1677C10.0024 19.5367 11.2925 19.2212 12.6947 19.2212C14.2792 19.2212 15.7306 19.6138 17.0487 20.3991C18.3668 21.1703 19.3974 22.2009 20.1406 23.491C20.8838 22.2009 21.9074 21.1703 23.2115 20.3991C24.5156 19.6138 25.9599 19.2212 27.5444 19.2212C29.129 19.2212 30.5733 19.6068 31.8774 20.378C33.1815 21.1493 34.2191 22.1869 34.9904 23.491C35.7616 24.7951 36.1472 26.2394 36.1472 27.8239V40.8438H33.2025V28.476C33.2025 27.3542 32.9291 26.3165 32.3822 25.363C31.8353 24.4095 31.0991 23.6452 30.1736 23.0703C29.2622 22.4814 28.2456 22.1869 27.1238 22.1869C26.002 22.1869 24.9783 22.4604 24.0529 23.0072C23.1414 23.5401 22.4122 24.2833 21.8654 25.2368C21.3185 26.1763 21.0451 27.256 21.0451 28.476V40.8438H18.1003V28.476C18.1003 27.256 17.8269 26.1763 17.28 25.2368C16.7332 24.2833 15.997 23.5401 15.0715 23.0072C14.146 22.4604 13.1224 22.1869 12.0006 22.1869C10.8928 22.1869 9.87619 22.4814 8.95071 23.0703C8.02523 23.6452 7.28906 24.4095 6.74218 25.363C6.19531 26.3165 5.92187 27.3542 5.92187 28.476V40.8438H2.97716ZM49.2051 41.3906C47.27 41.3906 45.5032 40.8928 43.9047 39.8972C42.3201 38.9016 41.0511 37.5695 40.0976 35.9008C39.1581 34.2182 38.6883 32.3602 38.6883 30.3269C38.6883 28.7845 38.9618 27.3472 39.5086 26.015C40.0555 24.6689 40.8057 23.491 41.7592 22.4814C42.7268 21.4578 43.8486 20.6585 45.1246 20.0836C46.4007 19.5086 47.7608 19.2212 49.2051 19.2212C50.7616 19.2212 52.1919 19.5297 53.496 20.1467C54.8141 20.7636 55.9429 21.626 56.8824 22.7338C57.8359 23.8416 58.5511 25.1386 59.0278 26.625C59.5186 28.1114 59.722 29.717 59.6378 31.4417H41.8013C41.9696 32.7738 42.3902 33.9658 43.0633 35.0174C43.7504 36.0691 44.6198 36.9034 45.6715 37.5204C46.7372 38.1234 47.9151 38.4319 49.2051 38.4459C50.6074 38.4459 51.8694 38.0813 52.9912 37.3522C54.127 36.623 55.0385 35.6204 55.7256 34.3444L58.7123 35.0385C57.871 36.9034 56.602 38.4319 54.9053 39.6238C53.2085 40.8017 51.3085 41.3906 49.2051 41.3906ZM41.7172 29.0649H56.6721C56.5739 27.7608 56.1743 26.5689 55.4732 25.4892C54.7861 24.3954 53.8956 23.5261 52.8019 22.881C51.7081 22.222 50.5092 21.8924 49.2051 21.8924C47.9011 21.8924 46.7092 22.215 45.6294 22.86C44.5497 23.491 43.6663 24.3534 42.9792 25.4471C42.2921 26.5269 41.8714 27.7328 41.7172 29.0649ZM73.6219 22.7548H68.5949L68.5738 40.8438H65.6291L65.6502 22.7548H61.8431V19.8101H65.6502L65.6291 13.2056H68.5738L68.5949 19.8101H73.6219V22.7548ZM77.3754 40.8438V19.8101H80.3201V22.7128C81.0633 21.6471 82.0309 20.7987 83.2228 20.1677C84.4147 19.5367 85.7117 19.2212 87.114 19.2212C87.9273 19.2212 88.7125 19.3263 89.4698 19.5367L88.2708 22.4604C87.6819 22.2781 87.107 22.1869 86.5461 22.1869C85.4103 22.1869 84.3656 22.4674 83.4121 23.0283C82.4726 23.5892 81.7224 24.3394 81.1615 25.2789C80.6006 26.2184 80.3201 27.263 80.3201 28.4129V40.8438H77.3754ZM100.269 41.3906C98.3341 41.3906 96.5673 40.8928 94.9687 39.8972C93.3842 38.9016 92.1152 37.5695 91.1617 35.9008C90.2221 34.2182 89.7524 32.3602 89.7524 30.3269C89.7524 28.7845 90.0258 27.3472 90.5727 26.015C91.1196 24.6689 91.8698 23.491 92.8233 22.4814C93.7909 21.4578 94.9126 20.6585 96.1887 20.0836C97.4647 19.5086 98.8249 19.2212 100.269 19.2212C102.204 19.2212 103.964 19.719 105.549 20.7146C107.147 21.7102 108.416 23.0493 109.356 24.732C110.309 26.4147 110.786 28.2797 110.786 30.3269C110.786 31.8554 110.513 33.2857 109.966 34.6178C109.419 35.9499 108.662 37.1278 107.694 38.1514C106.741 39.1611 105.626 39.9533 104.35 40.5282C103.088 41.1032 101.728 41.3906 100.269 41.3906ZM100.269 38.4459C101.7 38.4459 102.983 38.0743 104.118 37.3311C105.268 36.5739 106.173 35.5783 106.832 34.3444C107.505 33.1104 107.841 31.7712 107.841 30.3269C107.841 28.8546 107.505 27.5014 106.832 26.2674C106.159 25.0194 105.247 24.0239 104.097 23.2807C102.962 22.5375 101.685 22.1659 100.269 22.1659C98.8389 22.1659 97.5489 22.5445 96.399 23.3017C95.2632 24.0449 94.3588 25.0335 93.6857 26.2674C93.0266 27.5014 92.6971 28.8546 92.6971 30.3269C92.6971 31.8414 93.0407 33.2156 93.7278 34.4495C94.4149 35.6695 95.3333 36.644 96.4832 37.3732C97.633 38.0883 98.895 38.4459 100.269 38.4459ZM134.819 40.8438H131.075L123.398 19.747H126.532L132.947 37.3942L139.363 19.747H142.497L134.819 40.8438ZM145.981 19.8101H148.926V40.8438H145.981V19.8101ZM147.475 16.1292C146.998 16.1292 146.591 15.975 146.255 15.6665C145.932 15.344 145.771 14.9443 145.771 14.4676C145.771 13.9908 145.932 13.5982 146.255 13.2897C146.591 12.9672 146.998 12.8059 147.475 12.8059C147.937 12.8059 148.33 12.9672 148.652 13.2897C148.989 13.5982 149.157 13.9908 149.157 14.4676C149.157 14.9443 148.996 15.344 148.674 15.6665C148.351 15.975 147.951 16.1292 147.475 16.1292ZM171.076 19.8101H174.021V40.8438H171.076L170.971 36.9315C170.284 38.2636 169.323 39.3434 168.09 40.1707C166.856 40.984 165.383 41.3906 163.672 41.3906C162.13 41.3906 160.686 41.1032 159.34 40.5282C157.993 39.9393 156.808 39.133 155.785 38.1094C154.761 37.0857 153.962 35.9008 153.387 34.5547C152.812 33.2085 152.525 31.7642 152.525 30.2218C152.525 28.7073 152.805 27.2841 153.366 25.9519C153.941 24.6198 154.726 23.4489 155.722 22.4393C156.731 21.4297 157.895 20.6445 159.213 20.0836C160.545 19.5086 161.969 19.2212 163.483 19.2212C165.236 19.2212 166.764 19.6418 168.068 20.4832C169.373 21.3105 170.41 22.3973 171.181 23.7434L171.076 19.8101ZM163.609 38.5301C165.11 38.5301 166.4 38.1655 167.48 37.4363C168.559 36.6931 169.387 35.6975 169.962 34.4495C170.55 33.2015 170.845 31.8273 170.845 30.3269C170.845 28.7845 170.55 27.3962 169.962 26.1623C169.373 24.9143 168.538 23.9257 167.459 23.1965C166.379 22.4674 165.096 22.1028 163.609 22.1028C162.123 22.1028 160.763 22.4744 159.529 23.2176C158.309 23.9467 157.334 24.9353 156.605 26.1833C155.89 27.4313 155.532 28.8125 155.532 30.3269C155.532 31.8554 155.904 33.2436 156.647 34.4916C157.39 35.7256 158.372 36.7071 159.592 37.4363C160.826 38.1655 162.165 38.5301 163.609 38.5301ZM198.495 40.8438H194.751L187.074 19.747H190.208L196.623 37.3942L203.039 19.747H206.173L198.495 40.8438ZM209.657 19.8101H212.602V40.8438H209.657V19.8101ZM211.151 16.1292C210.674 16.1292 210.267 15.975 209.931 15.6665C209.608 15.344 209.447 14.9443 209.447 14.4676C209.447 13.9908 209.608 13.5982 209.931 13.2897C210.267 12.9672 210.674 12.8059 211.151 12.8059C211.613 12.8059 212.006 12.9672 212.329 13.2897C212.665 13.5982 212.833 13.9908 212.833 14.4676C212.833 14.9443 212.672 15.344 212.35 15.6665C212.027 15.975 211.627 16.1292 211.151 16.1292ZM217.586 40.8438V19.8101H220.531V22.7128C221.274 21.6471 222.241 20.7987 223.433 20.1677C224.625 19.5367 225.922 19.2212 227.325 19.2212C228.138 19.2212 228.923 19.3263 229.68 19.5367L228.481 22.4604C227.892 22.2781 227.318 22.1869 226.757 22.1869C225.621 22.1869 224.576 22.4674 223.623 23.0283C222.683 23.5892 221.933 24.3394 221.372 25.2789C220.811 26.2184 220.531 27.263 220.531 28.4129V40.8438H217.586ZM243.37 22.7548H238.343L238.322 40.8438H235.377L235.398 22.7548H231.591V19.8101H235.398L235.377 13.2056H238.322L238.343 19.8101H243.37V22.7548ZM246.282 32.7879V19.8101H249.227V32.1989C249.227 33.3488 249.507 34.3934 250.068 35.3329C250.629 36.2724 251.379 37.0226 252.319 37.5835C253.272 38.1444 254.317 38.4249 255.453 38.4249C256.603 38.4249 257.64 38.1444 258.566 37.5835C259.505 37.0226 260.255 36.2724 260.816 35.3329C261.377 34.3934 261.658 33.3488 261.658 32.1989V19.8101H264.602L264.623 40.8438H261.679L261.658 37.899C260.914 38.9647 259.947 39.8131 258.755 40.4441C257.577 41.0751 256.287 41.3906 254.885 41.3906C253.3 41.3906 251.856 41.005 250.552 40.2338C249.248 39.4625 248.21 38.4249 247.439 37.1208C246.668 35.8167 246.282 34.3724 246.282 32.7879ZM285.94 19.8101H288.884V40.8438H285.94L285.834 36.9315C285.147 38.2636 284.187 39.3434 282.953 40.1707C281.719 40.984 280.247 41.3906 278.536 41.3906C276.993 41.3906 275.549 41.1032 274.203 40.5282C272.857 39.9393 271.672 39.133 270.648 38.1094C269.625 37.0857 268.825 35.9008 268.25 34.5547C267.675 33.2085 267.388 31.7642 267.388 30.2218C267.388 28.7073 267.668 27.2841 268.229 25.9519C268.804 24.6198 269.59 23.4489 270.585 22.4393C271.595 21.4297 272.759 20.6445 274.077 20.0836C275.409 19.5086 276.832 19.2212 278.347 19.2212C280.099 19.2212 281.628 19.6418 282.932 20.4832C284.236 21.3105 285.274 22.3973 286.045 23.7434L285.94 19.8101ZM278.473 38.5301C279.973 38.5301 281.263 38.1655 282.343 37.4363C283.423 36.6931 284.25 35.6975 284.825 34.4495C285.414 33.2015 285.708 31.8273 285.708 30.3269C285.708 28.7845 285.414 27.3962 284.825 26.1623C284.236 24.9143 283.402 23.9257 282.322 23.1965C281.242 22.4674 279.959 22.1028 278.473 22.1028C276.986 22.1028 275.626 22.4744 274.392 23.2176C273.172 23.9467 272.198 24.9353 271.469 26.1833C270.753 27.4313 270.396 28.8125 270.396 30.3269C270.396 31.8554 270.767 33.2436 271.511 34.4916C272.254 35.7256 273.235 36.7071 274.455 37.4363C275.689 38.1655 277.028 38.5301 278.473 38.5301ZM293.381 40.8438V9.2933H296.326V40.8438H293.381Z" fill="white"/>
<path d="M7.9255 56.2052H9.60213L14.5164 69.6953H13.0807L12.0304 66.8046H5.50691L4.4566 69.6953H3.02087L7.9255 56.2052ZM5.99833 65.4556H11.5293L8.76381 57.8625L5.99833 65.4556ZM25.7323 69.6953H24.0172L20.5001 60.0306H21.9358L24.8748 68.115L27.8137 60.0306H29.2494L25.7323 69.6953ZM30.8458 60.0595H32.1948V69.6953H30.8458V60.0595ZM31.5299 58.3732C31.3115 58.3732 31.1252 58.3026 30.9711 58.1612C30.8233 58.0135 30.7494 57.8304 30.7494 57.612C30.7494 57.3936 30.8233 57.2137 30.9711 57.0724C31.1252 56.9246 31.3115 56.8508 31.5299 56.8508C31.7419 56.8508 31.9218 56.9246 32.0695 57.0724C32.2237 57.2137 32.3008 57.3936 32.3008 57.612C32.3008 57.8304 32.2269 58.0135 32.0792 58.1612C31.9314 58.3026 31.7483 58.3732 31.5299 58.3732ZM34.478 69.6953V60.0595H35.8271V61.3892C36.1675 60.901 36.6108 60.5124 37.1568 60.2233C37.7028 59.9342 38.297 59.7897 38.9394 59.7897C39.312 59.7897 39.6718 59.8379 40.0186 59.9342L39.4694 61.2736C39.1996 61.1901 38.9362 61.1483 38.6793 61.1483C38.1589 61.1483 37.6803 61.2768 37.2435 61.5338C36.8131 61.7907 36.4694 62.1344 36.2125 62.5648C35.9555 62.9952 35.8271 63.4738 35.8271 64.0005V69.6953H34.478ZM46.2901 61.4085H43.9871L43.9775 69.6953H42.6284L42.6381 61.4085H40.894V60.0595H42.6381L42.6284 57.0338H43.9775L43.9871 60.0595H46.2901V61.4085ZM47.6242 66.0048V60.0595H48.9732V65.735C48.9732 66.2617 49.1017 66.7403 49.3586 67.1707C49.6156 67.6011 49.9592 67.9448 50.3896 68.2018C50.8265 68.4587 51.305 68.5872 51.8254 68.5872C52.3521 68.5872 52.8275 68.4587 53.2515 68.2018C53.6819 67.9448 54.0256 67.6011 54.2825 67.1707C54.5395 66.7403 54.6679 66.2617 54.6679 65.735V60.0595H56.017L56.0266 69.6953H54.6776L54.6679 68.3463C54.3275 68.8345 53.8842 69.2232 53.3382 69.5122C52.7986 69.8013 52.2076 69.9458 51.5652 69.9458C50.8393 69.9458 50.1777 69.7692 49.5802 69.4159C48.9828 69.0626 48.5074 68.5872 48.1541 67.9898C47.8008 67.3924 47.6242 66.7307 47.6242 66.0048ZM65.7919 60.0595H67.1409V69.6953H65.7919L65.7437 67.9031C65.4289 68.5133 64.9889 69.008 64.4236 69.387C63.8583 69.7596 63.1838 69.9458 62.4001 69.9458C61.6935 69.9458 61.0318 69.8142 60.4151 69.5508C59.7984 69.281 59.2556 68.9116 58.7867 68.4427C58.3177 67.9737 57.9516 67.4309 57.6882 66.8142C57.4248 66.1975 57.2931 65.5359 57.2931 64.8292C57.2931 64.1354 57.4216 63.4834 57.6785 62.8732C57.9419 62.2629 58.3017 61.7265 58.7577 61.264C59.2203 60.8015 59.7534 60.4417 60.3573 60.1848C60.9676 59.9214 61.6196 59.7897 62.3134 59.7897C63.1163 59.7897 63.8166 59.9824 64.414 60.3678C65.0114 60.7468 65.4868 61.2447 65.8401 61.8614L65.7919 60.0595ZM62.3712 68.6354C63.0585 68.6354 63.6495 68.4684 64.1442 68.1343C64.6388 67.7938 65.0178 67.3377 65.2812 66.766C65.551 66.1943 65.6859 65.5648 65.6859 64.8774C65.6859 64.1708 65.551 63.5348 65.2812 62.9695C65.0114 62.3978 64.6292 61.9449 64.1345 61.6109C63.6399 61.2768 63.0521 61.1098 62.3712 61.1098C61.6902 61.1098 61.0671 61.28 60.5018 61.6205C59.943 61.9545 59.4965 62.4074 59.1625 62.9791C58.8348 63.5509 58.671 64.1836 58.671 64.8774C58.671 65.5776 58.8413 66.2136 59.1817 66.7853C59.5222 67.3506 59.9719 67.8003 60.5307 68.1343C61.096 68.4684 61.7095 68.6354 62.3712 68.6354ZM69.2009 69.6953V55.2416H70.5499V69.6953H69.2009ZM81.7402 69.9458C80.8537 69.9458 80.0443 69.7178 79.312 69.2617C78.5861 68.8056 78.0047 68.1953 77.5679 67.4309C77.1375 66.66 76.9223 65.8089 76.9223 64.8774C76.9223 64.1708 77.0476 63.5123 77.2981 62.9021C77.5486 62.2854 77.8923 61.7458 78.3291 61.2832C78.7724 60.8143 79.2863 60.4481 79.8709 60.1848C80.4555 59.9214 81.0786 59.7897 81.7402 59.7897C82.4533 59.7897 83.1085 59.931 83.7059 60.2137C84.3098 60.4963 84.8269 60.8914 85.2573 61.3989C85.6941 61.9064 86.0217 62.5006 86.2402 63.1815C86.465 63.8624 86.5581 64.598 86.5196 65.3881H78.3484C78.4255 65.9984 78.6182 66.5444 78.9266 67.0262C79.2413 67.508 79.6396 67.8902 80.1214 68.1729C80.6096 68.4491 81.1492 68.5904 81.7402 68.5968C82.3826 68.5968 82.9608 68.4298 83.4747 68.0958C83.995 67.7617 84.4126 67.3024 84.7273 66.7178L86.0956 67.0358C85.7102 67.8902 85.1288 68.5904 84.3515 69.1364C83.5742 69.676 82.7038 69.9458 81.7402 69.9458ZM78.3099 64.2993H85.1609C85.116 63.7018 84.9329 63.1558 84.6117 62.6612C84.2969 62.1601 83.889 61.7618 83.388 61.4663C82.8869 61.1644 82.3376 61.0134 81.7402 61.0134C81.1428 61.0134 80.5968 61.1612 80.1021 61.4567C79.6075 61.7458 79.2028 62.1408 78.888 62.6419C78.5733 63.1365 78.3805 63.689 78.3099 64.2993ZM87.1084 69.6953L90.6351 64.8581L87.1181 60.0306H88.7851L91.4735 63.7018L94.1522 60.0306H95.8096L92.3021 64.8581L95.8288 69.6953H94.1618L91.4735 65.9952L88.7754 69.6953H87.1084ZM106.153 63.7307V69.6953H104.804V64.0005C104.804 63.4738 104.676 62.9952 104.419 62.5648C104.162 62.1344 103.818 61.7907 103.388 61.5338C102.957 61.2768 102.479 61.1483 101.952 61.1483C101.432 61.1483 100.953 61.2768 100.516 61.5338C100.086 61.7907 99.7421 62.1344 99.4852 62.5648C99.2282 62.9952 99.0997 63.4738 99.0997 64.0005V69.6953H97.7507V55.2416H99.0997V61.3892C99.4402 60.901 99.8835 60.5124 100.429 60.2233C100.976 59.9342 101.57 59.7897 102.212 59.7897C102.938 59.7897 103.6 59.9663 104.197 60.3197C104.795 60.673 105.27 61.1483 105.623 61.7458C105.977 62.3432 106.153 63.0048 106.153 63.7307ZM108.083 60.0595H109.432V69.6953H108.083V60.0595ZM108.767 58.3732C108.549 58.3732 108.362 58.3026 108.208 58.1612C108.06 58.0135 107.987 57.8304 107.987 57.612C107.987 57.3936 108.06 57.2137 108.208 57.0724C108.362 56.9246 108.549 56.8508 108.767 56.8508C108.979 56.8508 109.159 56.9246 109.307 57.0724C109.461 57.2137 109.538 57.3936 109.538 57.612C109.538 57.8304 109.464 58.0135 109.316 58.1612C109.169 58.3026 108.985 58.3732 108.767 58.3732ZM116.607 59.7897C117.545 59.7897 118.396 60.0177 119.161 60.4738C119.932 60.9299 120.545 61.5434 121.001 62.3143C121.457 63.0787 121.686 63.9299 121.686 64.8678C121.686 65.568 121.554 66.2264 121.29 66.8431C121.027 67.4534 120.661 67.993 120.192 68.4619C119.729 68.9244 119.19 69.2874 118.573 69.5508C117.963 69.8142 117.308 69.9458 116.607 69.9458C115.811 69.9458 115.124 69.7563 114.545 69.3773C113.967 68.9983 113.511 68.5037 113.177 67.8934V69.6953H111.828V55.2416H113.177V61.8421C113.511 61.2319 113.967 60.7372 114.545 60.3582C115.124 59.9792 115.811 59.7897 116.607 59.7897ZM116.598 68.6257C117.285 68.6257 117.908 68.4587 118.467 68.1247C119.026 67.7842 119.472 67.3281 119.807 66.7564C120.141 66.1847 120.308 65.5551 120.308 64.8678C120.308 64.1611 120.137 63.5252 119.797 62.9599C119.456 62.3882 119.004 61.9353 118.438 61.6012C117.879 61.2672 117.266 61.1002 116.598 61.1002C115.917 61.1002 115.326 61.2704 114.825 61.6109C114.33 61.9513 113.948 62.4074 113.678 62.9791C113.415 63.5509 113.283 64.1804 113.283 64.8678C113.283 65.568 113.418 66.2039 113.688 66.7757C113.958 67.341 114.34 67.7906 114.834 68.1247C115.336 68.4587 115.923 68.6257 116.598 68.6257ZM123.233 60.0595H124.582V69.6953H123.233V60.0595ZM123.917 58.3732C123.699 58.3732 123.512 58.3026 123.358 58.1612C123.21 58.0135 123.137 57.8304 123.137 57.612C123.137 57.3936 123.21 57.2137 123.358 57.0724C123.512 56.9246 123.699 56.8508 123.917 56.8508C124.129 56.8508 124.309 56.9246 124.457 57.0724C124.611 57.2137 124.688 57.3936 124.688 57.612C124.688 57.8304 124.614 58.0135 124.466 58.1612C124.319 58.3026 124.136 58.3732 123.917 58.3732ZM131.827 61.4085H129.524L129.514 69.6953H128.165L128.175 61.4085H126.431V60.0595H128.175L128.165 57.0338H129.514L129.524 60.0595H131.827V61.4085ZM133.471 60.0595H134.82V69.6953H133.471V60.0595ZM134.155 58.3732C133.937 58.3732 133.75 58.3026 133.596 58.1612C133.449 58.0135 133.375 57.8304 133.375 57.612C133.375 57.3936 133.449 57.2137 133.596 57.0724C133.75 56.9246 133.937 56.8508 134.155 56.8508C134.367 56.8508 134.547 56.9246 134.695 57.0724C134.849 57.2137 134.926 57.3936 134.926 57.612C134.926 57.8304 134.852 58.0135 134.704 58.1612C134.557 58.3026 134.374 58.3732 134.155 58.3732ZM141.287 69.9458C140.4 69.9458 139.591 69.7178 138.858 69.2617C138.132 68.8056 137.551 68.1953 137.114 67.4309C136.684 66.66 136.469 65.8089 136.469 64.8774C136.469 64.1708 136.594 63.5123 136.844 62.9021C137.095 62.2854 137.439 61.7458 137.875 61.2832C138.319 60.8143 138.833 60.4481 139.417 60.1848C140.002 59.9214 140.625 59.7897 141.287 59.7897C142.173 59.7897 142.979 60.0177 143.705 60.4738C144.437 60.9299 145.019 61.5434 145.449 62.3143C145.886 63.0851 146.104 63.9395 146.104 64.8774C146.104 65.5776 145.979 66.2328 145.729 66.8431C145.478 67.4534 145.131 67.993 144.688 68.4619C144.251 68.9244 143.74 69.2874 143.156 69.5508C142.578 69.8142 141.955 69.9458 141.287 69.9458ZM141.287 68.5968C141.942 68.5968 142.53 68.4266 143.05 68.0861C143.577 67.7392 143.991 67.2831 144.293 66.7178C144.601 66.1525 144.755 65.5391 144.755 64.8774C144.755 64.2029 144.601 63.583 144.293 63.0177C143.985 62.446 143.567 61.9899 143.04 61.6494C142.52 61.3089 141.935 61.1387 141.287 61.1387C140.631 61.1387 140.04 61.3122 139.514 61.659C138.993 61.9995 138.579 62.4524 138.271 63.0177C137.969 63.583 137.818 64.2029 137.818 64.8774C137.818 65.5712 137.975 66.2007 138.29 66.766C138.605 67.3249 139.025 67.7714 139.552 68.1054C140.079 68.433 140.657 68.5968 141.287 68.5968ZM156.139 63.7307V69.6953H154.79V64.0005C154.79 63.4738 154.661 62.9952 154.405 62.5648C154.148 62.1344 153.804 61.7907 153.373 61.5338C152.943 61.2768 152.465 61.1483 151.938 61.1483C151.417 61.1483 150.939 61.2768 150.502 61.5338C150.072 61.7907 149.728 62.1344 149.471 62.5648C149.214 62.9952 149.086 63.4738 149.086 64.0005V69.6953H147.737V60.0595H149.086V61.3892C149.426 60.901 149.869 60.5124 150.415 60.2233C150.961 59.9342 151.556 59.7897 152.198 59.7897C152.924 59.7897 153.585 59.9663 154.183 60.3197C154.78 60.673 155.256 61.1483 155.609 61.7458C155.962 62.3432 156.139 63.0048 156.139 63.7307ZM164.693 57.5445V60.0595H167.584V61.4085H164.693V69.6953H163.344V61.4085H162.024V60.0595H163.344V57.5445C163.344 57.0756 163.456 56.6516 163.681 56.2726C163.913 55.8872 164.221 55.5821 164.606 55.3572C164.992 55.126 165.419 55.0103 165.888 55.0103C166.228 55.0103 166.556 55.0778 166.871 55.2127C167.192 55.3476 167.478 55.5467 167.728 55.8101L166.765 56.764C166.662 56.6356 166.53 56.536 166.37 56.4653C166.215 56.3947 166.055 56.3593 165.888 56.3593C165.56 56.3593 165.278 56.475 165.04 56.7062C164.809 56.9375 164.693 57.2169 164.693 57.5445ZM169.398 69.6953V60.0595H170.747V61.3892C171.088 60.901 171.531 60.5124 172.077 60.2233C172.623 59.9342 173.217 59.7897 173.86 59.7897C174.232 59.7897 174.592 59.8379 174.939 59.9342L174.39 61.2736C174.12 61.1901 173.856 61.1483 173.6 61.1483C173.079 61.1483 172.601 61.2768 172.164 61.5338C171.733 61.7907 171.39 62.1344 171.133 62.5648C170.876 62.9952 170.747 63.4738 170.747 64.0005V69.6953H169.398ZM179.886 69.9458C179 69.9458 178.19 69.7178 177.458 69.2617C176.732 68.8056 176.151 68.1953 175.714 67.4309C175.284 66.66 175.068 65.8089 175.068 64.8774C175.068 64.1708 175.194 63.5123 175.444 62.9021C175.695 62.2854 176.038 61.7458 176.475 61.2832C176.918 60.8143 177.432 60.4481 178.017 60.1848C178.602 59.9214 179.225 59.7897 179.886 59.7897C180.773 59.7897 181.579 60.0177 182.305 60.4738C183.037 60.9299 183.619 61.5434 184.049 62.3143C184.486 63.0851 184.704 63.9395 184.704 64.8774C184.704 65.5776 184.579 66.2328 184.328 66.8431C184.078 67.4534 183.731 67.993 183.288 68.4619C182.851 68.9244 182.34 69.2874 181.756 69.5508C181.177 69.8142 180.554 69.9458 179.886 69.9458ZM179.886 68.5968C180.542 68.5968 181.129 68.4266 181.65 68.0861C182.176 67.7392 182.591 67.2831 182.893 66.7178C183.201 66.1525 183.355 65.5391 183.355 64.8774C183.355 64.2029 183.201 63.583 182.893 63.0177C182.584 62.446 182.167 61.9899 181.64 61.6494C181.12 61.3089 180.535 61.1387 179.886 61.1387C179.231 61.1387 178.64 61.3122 178.113 61.659C177.593 61.9995 177.179 62.4524 176.87 63.0177C176.568 63.583 176.417 64.2029 176.417 64.8774C176.417 65.5712 176.575 66.2007 176.89 66.766C177.204 67.3249 177.625 67.7714 178.152 68.1054C178.679 68.433 179.257 68.5968 179.886 68.5968ZM186.336 69.6953V60.0595H187.685V61.3892C188.032 60.901 188.475 60.5124 189.015 60.2233C189.555 59.9342 190.146 59.7897 190.788 59.7897C191.514 59.7897 192.179 59.9696 192.783 60.3293C193.386 60.6826 193.859 61.1548 194.199 61.7458C194.54 61.1548 195.009 60.6826 195.606 60.3293C196.203 59.9696 196.865 59.7897 197.591 59.7897C198.317 59.7897 198.978 59.9663 199.576 60.3197C200.173 60.673 200.649 61.1483 201.002 61.7458C201.355 62.3432 201.532 63.0048 201.532 63.7307V69.6953H200.183V64.0295C200.183 63.5155 200.058 63.0402 199.807 62.6034C199.557 62.1665 199.219 61.8164 198.795 61.553C198.378 61.2832 197.912 61.1483 197.398 61.1483C196.884 61.1483 196.415 61.2736 195.991 61.5241C195.574 61.7682 195.24 62.1087 194.989 62.5455C194.739 62.9759 194.613 63.4706 194.613 64.0295V69.6953H193.264V64.0295C193.264 63.4706 193.139 62.9759 192.889 62.5455C192.638 62.1087 192.301 61.7682 191.877 61.5241C191.453 61.2736 190.984 61.1483 190.47 61.1483C189.963 61.1483 189.497 61.2832 189.073 61.553C188.649 61.8164 188.312 62.1665 188.061 62.6034C187.811 63.0402 187.685 63.5155 187.685 64.0295V69.6953H186.336ZM216.523 56.2052H217.872V69.6953H216.523V63.143H209.441V69.6953H208.092V56.2052H209.441V61.7939H216.523V56.2052ZM224.358 69.9458C223.471 69.9458 222.662 69.7178 221.93 69.2617C221.204 68.8056 220.622 68.1953 220.186 67.4309C219.755 66.66 219.54 65.8089 219.54 64.8774C219.54 64.1708 219.665 63.5123 219.916 62.9021C220.166 62.2854 220.51 61.7458 220.947 61.2832C221.39 60.8143 221.904 60.4481 222.489 60.1848C223.073 59.9214 223.696 59.7897 224.358 59.7897C225.244 59.7897 226.051 60.0177 226.776 60.4738C227.509 60.9299 228.09 61.5434 228.521 62.3143C228.957 63.0851 229.176 63.9395 229.176 64.8774C229.176 65.5776 229.05 66.2328 228.8 66.8431C228.549 67.4534 228.203 67.993 227.759 68.4619C227.322 68.9244 226.812 69.2874 226.227 69.5508C225.649 69.8142 225.026 69.9458 224.358 69.9458ZM224.358 68.5968C225.013 68.5968 225.601 68.4266 226.121 68.0861C226.648 67.7392 227.062 67.2831 227.364 66.7178C227.673 66.1525 227.827 65.5391 227.827 64.8774C227.827 64.2029 227.673 63.583 227.364 63.0177C227.056 62.446 226.638 61.9899 226.112 61.6494C225.591 61.3089 225.007 61.1387 224.358 61.1387C223.703 61.1387 223.112 61.3122 222.585 61.659C222.065 61.9995 221.65 62.4524 221.342 63.0177C221.04 63.583 220.889 64.2029 220.889 64.8774C220.889 65.5712 221.046 66.2007 221.361 66.766C221.676 67.3249 222.097 67.7714 222.623 68.1054C223.15 68.433 223.728 68.5968 224.358 68.5968ZM239.21 63.7307V69.6953H237.861V64.0005C237.861 63.4738 237.733 62.9952 237.476 62.5648C237.219 62.1344 236.875 61.7907 236.445 61.5338C236.014 61.2768 235.536 61.1483 235.009 61.1483C234.489 61.1483 234.01 61.2768 233.573 61.5338C233.143 61.7907 232.799 62.1344 232.542 62.5648C232.285 62.9952 232.157 63.4738 232.157 64.0005V69.6953H230.808V60.0595H232.157V61.3892C232.497 60.901 232.941 60.5124 233.487 60.2233C234.033 59.9342 234.627 59.7897 235.269 59.7897C235.995 59.7897 236.657 59.9663 237.254 60.3197C237.852 60.673 238.327 61.1483 238.68 61.7458C239.034 62.3432 239.21 63.0048 239.21 63.7307ZM248.612 60.0595H249.961V70.0518C249.961 70.6685 249.826 71.2467 249.557 71.7863C249.293 72.3259 248.933 72.798 248.477 73.2028C248.028 73.6139 247.514 73.9351 246.936 74.1663C246.357 74.3976 245.757 74.5132 245.134 74.5132C244.466 74.5132 243.82 74.359 243.197 74.0507C242.574 73.7488 242.031 73.3441 241.568 72.8366C241.112 72.3291 240.788 71.767 240.595 71.1503L241.838 70.5818C241.96 71.0636 242.188 71.4972 242.522 71.8826C242.863 72.2745 243.261 72.5828 243.717 72.8077C244.18 73.0389 244.652 73.1546 245.134 73.1546C245.577 73.1546 246.004 73.0711 246.415 72.904C246.833 72.7434 247.205 72.5218 247.533 72.2392C247.867 71.9565 248.13 71.6257 248.323 71.2467C248.516 70.8741 248.612 70.4758 248.612 70.0518V67.9223C248.278 68.5262 247.825 69.0144 247.254 69.387C246.688 69.7596 246.03 69.9458 245.278 69.9458C244.604 69.9458 243.968 69.8142 243.37 69.5508C242.779 69.2874 242.259 68.9244 241.809 68.4619C241.36 67.993 241.006 67.4534 240.749 66.8431C240.499 66.2328 240.374 65.5776 240.374 64.8774C240.374 64.1772 240.499 63.522 240.749 62.9117C241.006 62.295 241.36 61.7554 241.809 61.2929C242.259 60.8239 242.779 60.4578 243.37 60.1944C243.968 59.931 244.604 59.7993 245.278 59.7993C246.03 59.7993 246.688 59.9856 247.254 60.3582C247.825 60.7244 248.278 61.2126 248.612 61.8228V60.0595ZM245.288 68.6354C245.956 68.6354 246.531 68.4619 247.013 68.115C247.501 67.7681 247.877 67.3088 248.14 66.7371C248.403 66.1654 248.535 65.5455 248.535 64.8774C248.535 64.19 248.4 63.5637 248.13 62.9984C247.867 62.4267 247.491 61.9706 247.003 61.6301C246.515 61.2832 245.943 61.1098 245.288 61.1098C244.633 61.1098 244.035 61.28 243.496 61.6205C242.962 61.9545 242.538 62.4074 242.224 62.9791C241.909 63.5509 241.752 64.1836 241.752 64.8774C241.752 65.5712 241.912 66.2039 242.233 66.7757C242.555 67.341 242.982 67.7938 243.515 68.1343C244.055 68.4684 244.646 68.6354 245.288 68.6354ZM265.574 69.6953H263.83L259.407 63.6344L258.26 65.0123V69.6953H256.911V56.2052H258.26V62.9117L263.878 56.2052H265.641L260.293 62.5744L265.574 69.6953ZM270.73 69.9458C269.844 69.9458 269.034 69.7178 268.302 69.2617C267.576 68.8056 266.995 68.1953 266.558 67.4309C266.128 66.66 265.912 65.8089 265.912 64.8774C265.912 64.1708 266.038 63.5123 266.288 62.9021C266.539 62.2854 266.882 61.7458 267.319 61.2832C267.762 60.8143 268.276 60.4481 268.861 60.1848C269.445 59.9214 270.069 59.7897 270.73 59.7897C271.617 59.7897 272.423 60.0177 273.149 60.4738C273.881 60.9299 274.462 61.5434 274.893 62.3143C275.33 63.0851 275.548 63.9395 275.548 64.8774C275.548 65.5776 275.423 66.2328 275.172 66.8431C274.922 67.4534 274.575 67.993 274.132 68.4619C273.695 68.9244 273.184 69.2874 272.6 69.5508C272.021 69.8142 271.398 69.9458 270.73 69.9458ZM270.73 68.5968C271.385 68.5968 271.973 68.4266 272.494 68.0861C273.02 67.7392 273.435 67.2831 273.737 66.7178C274.045 66.1525 274.199 65.5391 274.199 64.8774C274.199 64.2029 274.045 63.583 273.737 63.0177C273.428 62.446 273.011 61.9899 272.484 61.6494C271.964 61.3089 271.379 61.1387 270.73 61.1387C270.075 61.1387 269.484 61.3122 268.957 61.659C268.437 61.9995 268.023 62.4524 267.714 63.0177C267.412 63.583 267.261 64.2029 267.261 64.8774C267.261 65.5712 267.419 66.2007 267.733 66.766C268.048 67.3249 268.469 67.7714 268.996 68.1054C269.523 68.433 270.101 68.5968 270.73 68.5968ZM285.583 63.7307V69.6953H284.234V64.0005C284.234 63.4738 284.105 62.9952 283.848 62.5648C283.591 62.1344 283.248 61.7907 282.817 61.5338C282.387 61.2768 281.908 61.1483 281.381 61.1483C280.861 61.1483 280.382 61.2768 279.946 61.5338C279.515 61.7907 279.172 62.1344 278.915 62.5648C278.658 62.9952 278.529 63.4738 278.529 64.0005V69.6953H277.18V60.0595H278.529V61.3892C278.87 60.901 279.313 60.5124 279.859 60.2233C280.405 59.9342 280.999 59.7897 281.642 59.7897C282.367 59.7897 283.029 59.9663 283.627 60.3197C284.224 60.673 284.699 61.1483 285.053 61.7458C285.406 62.3432 285.583 63.0048 285.583 63.7307ZM294.985 60.0595H296.334V70.0518C296.334 70.6685 296.199 71.2467 295.929 71.7863C295.666 72.3259 295.306 72.798 294.85 73.2028C294.4 73.6139 293.886 73.9351 293.308 74.1663C292.73 74.3976 292.129 74.5132 291.506 74.5132C290.838 74.5132 290.192 74.359 289.569 74.0507C288.946 73.7488 288.403 73.3441 287.941 72.8366C287.485 72.3291 287.16 71.767 286.968 71.1503L288.211 70.5818C288.333 71.0636 288.561 71.4972 288.895 71.8826C289.235 72.2745 289.634 72.5828 290.09 72.8077C290.552 73.0389 291.024 73.1546 291.506 73.1546C291.949 73.1546 292.377 73.0711 292.788 72.904C293.205 72.7434 293.578 72.5218 293.905 72.2392C294.239 71.9565 294.503 71.6257 294.696 71.2467C294.888 70.8741 294.985 70.4758 294.985 70.0518V67.9223C294.651 68.5262 294.198 69.0144 293.626 69.387C293.061 69.7596 292.402 69.9458 291.651 69.9458C290.976 69.9458 290.34 69.8142 289.743 69.5508C289.152 69.2874 288.631 68.9244 288.182 68.4619C287.732 67.993 287.379 67.4534 287.122 66.8431C286.871 66.2328 286.746 65.5776 286.746 64.8774C286.746 64.1772 286.871 63.522 287.122 62.9117C287.379 62.295 287.732 61.7554 288.182 61.2929C288.631 60.8239 289.152 60.4578 289.743 60.1944C290.34 59.931 290.976 59.7993 291.651 59.7993C292.402 59.7993 293.061 59.9856 293.626 60.3582C294.198 60.7244 294.651 61.2126 294.985 61.8228V60.0595ZM291.66 68.6354C292.328 68.6354 292.903 68.4619 293.385 68.115C293.873 67.7681 294.249 67.3088 294.512 66.7371C294.776 66.1654 294.908 65.5455 294.908 64.8774C294.908 64.19 294.773 63.5637 294.503 62.9984C294.239 62.4267 293.864 61.9706 293.375 61.6301C292.887 61.2832 292.315 61.1098 291.66 61.1098C291.005 61.1098 290.408 61.28 289.868 61.6205C289.335 61.9545 288.911 62.4074 288.596 62.9791C288.281 63.5509 288.124 64.1836 288.124 64.8774C288.124 65.5712 288.285 66.2039 288.606 66.7757C288.927 67.341 289.354 67.7938 289.887 68.1343C290.427 68.4684 291.018 68.6354 291.66 68.6354Z" fill="white"/>
</svg>
