<svg width="80" height="40" viewBox="0 0 80 40" fill="none" xmlns="http://www.w3.org/2000/svg">
<rect x="0.25" y="0.25" width="79.5" height="39.5" rx="19.75" stroke="white" stroke-width="0.5"/>
<path d="M28.36 21.6L23.2 13H25.26L29.32 19.86L33.38 13H35.44L30.28 21.6V27H28.36V21.6ZM38.4078 27.16C37.2345 27.16 36.2878 26.8267 35.5678 26.16C34.8611 25.48 34.5078 24.5933 34.5078 23.5V20.74C34.5078 19.5667 34.8611 18.6267 35.5678 17.92C36.2878 17.2133 37.2345 16.86 38.4078 16.86H40.0478C41.1811 16.86 42.0945 17.2067 42.7878 17.9C43.4811 18.5933 43.8278 19.5133 43.8278 20.66V22.54H36.3678V23.5C36.3678 24.1133 36.5545 24.6067 36.9278 24.98C37.3011 25.3533 37.7945 25.54 38.4078 25.54H39.9478C40.5478 25.54 41.0345 25.3867 41.4078 25.08C41.7811 24.76 41.9678 24.34 41.9678 23.82H43.7878C43.7878 24.82 43.4345 25.6267 42.7278 26.24C42.0211 26.8533 41.0878 27.16 39.9278 27.16H38.4078ZM41.9678 21.06V20.66C41.9678 19.9933 41.7878 19.46 41.4278 19.06C41.0811 18.66 40.6211 18.46 40.0478 18.46H38.4078C37.7945 18.46 37.3011 18.6733 36.9278 19.1C36.5545 19.5133 36.3678 20.0667 36.3678 20.76V21.06H41.9678ZM49.1988 27.16C48.1188 27.16 47.2521 26.8667 46.5988 26.28C45.9454 25.68 45.6188 24.8933 45.6188 23.92H47.4388C47.4388 24.4133 47.5988 24.8133 47.9188 25.12C48.2388 25.4267 48.6654 25.58 49.1988 25.58H50.9588C51.4654 25.58 51.8721 25.4867 52.1788 25.3C52.4854 25.1 52.6388 24.84 52.6388 24.52V23.94C52.6388 23.7267 52.5454 23.54 52.3588 23.38C52.1854 23.2067 51.9588 23.0933 51.6788 23.04L48.2188 22.44C47.4854 22.3067 46.8988 22.0333 46.4588 21.62C46.0188 21.1933 45.7988 20.7 45.7988 20.14V19.48C45.7988 18.6933 46.1121 18.06 46.7388 17.58C47.3654 17.1 48.2054 16.86 49.2588 16.86H50.9388C51.9388 16.86 52.7388 17.1333 53.3388 17.68C53.9521 18.2267 54.2588 18.9533 54.2588 19.86H52.4388C52.4254 19.4333 52.2788 19.0933 51.9988 18.84C51.7321 18.5733 51.3788 18.44 50.9388 18.44H49.2788C48.7854 18.44 48.3921 18.54 48.0988 18.74C47.8188 18.94 47.6788 19.2067 47.6788 19.54V20.04C47.6788 20.2533 47.7721 20.44 47.9588 20.6C48.1454 20.76 48.3854 20.8733 48.6788 20.94L52.1788 21.56C52.8721 21.68 53.4321 21.9467 53.8588 22.36C54.2988 22.7733 54.5188 23.2533 54.5188 23.8V24.58C54.5188 25.3533 54.1921 25.98 53.5388 26.46C52.8854 26.9267 52.0254 27.16 50.9588 27.16H49.1988Z" fill="white"/>
</svg>
